<svg width="18" height="18" viewBox="0 0 18 18" fill="none" xmlns="http://www.w3.org/2000/svg">
<path d="M1.29169 9C1.29169 11.0444 2.10381 13.005 3.54941 14.4506C4.995 15.8962 6.95564 16.7083 9.00002 16.7083V1.29167C6.95564 1.29167 4.995 2.10379 3.54941 3.54939C2.10381 4.99498 1.29169 6.95562 1.29169 9Z" fill="currentColor"/>
<path d="M9.00002 16.7083C11.0444 16.7083 13.005 15.8962 14.4506 14.4506C15.8962 13.005 16.7084 11.0444 16.7084 9C16.7084 6.95562 15.8962 4.99498 14.4506 3.54939C13.005 2.10379 11.0444 1.29167 9.00002 1.29167M9.00002 16.7083C6.95564 16.7083 4.995 15.8962 3.54941 14.4506C2.10381 13.005 1.29169 11.0444 1.29169 9C1.29169 6.95562 2.10381 4.99498 3.54941 3.54939C4.995 2.10379 6.95564 1.29167 9.00002 1.29167M9.00002 16.7083V1.29167" stroke="currentColor" stroke-width="2.25" stroke-linecap="round" stroke-linejoin="round"/>
</svg>
