<svg width="36" height="36" viewBox="0 0 36 36" fill="none" xmlns="http://www.w3.org/2000/svg">
    <path d="M4.125 18C4.125 21.6799 5.58683 25.209 8.18889 27.8111C10.791 30.4132 14.3201 31.875 18 31.875V4.125C14.3201 4.125 10.791 5.58683 8.18889 8.18889C5.58683 10.791 4.125 14.3201 4.125 18Z" fill="currentColor"/>
    <path d="M18 31.875C21.6799 31.875 25.209 30.4132 27.8111 27.8111C30.4132 25.209 31.875 21.6799 31.875 18C31.875 14.3201 30.4132 10.791 27.8111 8.18889C25.209 5.58683 21.6799 4.125 18 4.125M18 31.875C14.3201 31.875 10.791 30.4132 8.18889 27.8111C5.58683 25.209 4.125 21.6799 4.125 18C4.125 14.3201 5.58683 10.791 8.18889 8.18889C10.791 5.58683 14.3201 4.125 18 4.125" stroke="currentColor" stroke-width="2.25" stroke-linecap="round" stroke-linejoin="round"/>
</svg>
