<svg width="512" height="512" viewBox="0 0 512 512" fill="none" xmlns="http://www.w3.org/2000/svg">
<path d="M109.943 363.973C156.408 343.535 194.06 312.982 220.457 286.217C205.262 277.501 190.12 268.816 174.436 259.819C178.854 256.335 182.644 252.946 186.865 250.223C188.438 249.207 191.056 249.394 193.128 249.634C207.666 251.319 222.192 253.113 236.705 255.011C238.692 255.271 239.649 254.495 240.838 253.16C254.74 237.553 268.711 222.008 282.659 206.442C282.867 206.21 283.012 205.924 283.25 205.568C244.612 186.299 206.072 167.079 167.161 147.674C168.029 146.881 168.634 146.252 169.316 145.722C170.235 145.009 171.208 144.366 172.166 143.705C182.297 136.702 178.536 137.648 191.712 139.198C202.189 140.431 212.617 142.083 223.066 143.556C235.169 145.263 247.27 146.975 259.372 148.689C271.967 150.473 284.562 152.258 297.156 154.047C307.694 155.544 318.227 157.083 328.777 158.486C329.717 158.611 331.064 158.162 331.73 157.492C343.707 145.439 355.535 133.238 367.547 121.219C380.742 108.017 394.469 95.3941 409.562 84.348C414.59 80.6679 419.902 77.5518 426.5 78.1187C428.14 78.2597 429.816 78.5231 431.368 79.0476C435.656 80.4966 437.255 83.463 436.027 87.8093C433.558 96.546 429.097 104.347 424.281 111.943C414.909 126.725 403.153 139.561 391.09 152.118C381.626 161.968 371.992 171.655 362.384 181.366C361.274 182.488 360.995 183.431 361.296 185.064C364.598 202.961 367.761 220.883 370.96 238.799C374.743 259.986 378.54 281.17 382.298 302.361C383.706 310.299 384.988 318.26 386.395 326.199C386.794 328.448 386.494 330.442 385.227 332.372C382.093 337.144 379.037 341.967 375.525 347.43C355.069 307.49 334.98 268.268 314.754 228.777C311.355 231.913 308.132 234.871 304.925 237.846C291.552 250.249 278.167 262.639 264.854 275.106C264.092 275.82 263.469 277.21 263.556 278.219C264.339 287.338 265.296 296.443 266.201 305.551C266.778 311.346 267.321 317.145 267.952 322.934C268.122 324.484 267.712 325.576 266.517 326.633C262.407 330.266 258.396 334.012 253.934 338.093C246.283 324.058 238.763 310.265 231.134 296.273C227.633 299.571 224.345 302.706 221.016 305.797C206.973 318.833 192.46 331.301 176.648 342.175C151.099 359.743 123.27 372.173 92.8506 378.333C80.4992 380.834 67.9201 382.212 55.3604 383.655C73.8984 378.112 92.1261 371.905 109.943 363.973Z" fill="currentColor"/>
<path d="M272.45 344.449C292.189 323.701 308.055 300.471 320.534 274.881C320.8 274.983 321.066 275.085 321.331 275.187C320.606 277.81 319.995 280.471 319.137 283.049C313.168 300.986 305.485 318.128 295.521 334.234C278.008 362.543 254.601 384.559 225.338 400.392C201.799 413.128 176.573 420.421 150.076 423.319C122.658 426.317 95.5568 424.244 68.8632 417.199C67.2943 416.785 65.7301 416.353 64.1014 415.913C67.641 415.913 71.0792 415.973 74.5147 415.902C88.2439 415.62 102.038 416.047 115.688 414.845C153.704 411.496 189.803 401.306 223.07 382.197C241.118 371.83 257.704 359.466 272.45 344.449Z" fill="currentColor"/>
<path d="M207.314 431.931C219.09 428.601 230.874 425.929 242.18 421.914C265.769 413.537 287.36 401.289 307.148 385.949C323.165 373.533 337.164 359.1 349.353 342.916C350.746 341.067 351.863 338.998 353.351 337.238C354.078 336.378 355.366 335.993 356.084 335.077C326.819 407.881 239.166 452.217 164.126 436.053C179.087 436.324 193.133 434.508 207.314 431.931Z" fill="currentColor"/>
</svg>
